<?xml version="1.0" encoding="UTF-8" standalone="no"?><!DOCTYPE svg PUBLIC "-//W3C//DTD SVG 1.1//EN" "http://www.w3.org/Graphics/SVG/1.1/DTD/svg11.dtd"><svg width="100%" height="100%" viewBox="0 0 407 353" version="1.1" xmlns="http://www.w3.org/2000/svg" xmlns:xlink="http://www.w3.org/1999/xlink" xml:space="preserve" xmlns:serif="http://www.serif.com/" style="fill-rule:evenodd;clip-rule:evenodd;stroke-linejoin:round;stroke-miterlimit:2;"><path d="M288.517,116.58c-48.171,53.663 -119.491,99.45 -208.008,132.658c5.983,5.259 12.033,10.442 18.137,15.563c11.392,9.562 22.834,19.058 34.267,28.567c74.475,-46.963 128.021,-111.217 155.604,-176.788" style="fill:#cf102d;fill-rule:nonzero;"/><path d="M14.651,173.699c4.991,9.683 11.075,18.629 17.85,27.129c8.358,10.488 17.595,20.163 27.275,29.425c135.67,-48.187 237.725,-128.062 265.745,-226.421c-5.375,-1.454 -10.85,-2.633 -16.541,-3.225c-13.413,-1.404 -26.659,-0.421 -39.638,3.45c-10.496,3.134 -20.079,8.046 -28.975,14.413c-11.016,7.883 -20.462,17.421 -29.425,27.496c-2.466,2.766 -4.9,5.566 -7.362,8.366c-1.279,-0.337 -1.817,-1.371 -2.504,-2.175c-2.35,-2.741 -4.6,-5.575 -6.98,-8.296c-5.954,-6.812 -12.229,-13.308 -19.2,-19.095c-11.65,-9.675 -24.554,-17 -39.241,-21.017c-13.446,-3.675 -27.071,-4.596 -40.879,-2.771c-19.934,2.638 -37.467,10.771 -53.088,23.267c-9.175,7.341 -16.967,15.929 -23.292,25.837c-6.308,9.888 -10.995,20.513 -14.062,31.829c-3.554,13.092 -4.879,26.421 -4.133,39.971c1.008,18.346 6.05,35.534 14.45,51.817" style="fill:#cf102d;fill-rule:nonzero;"/><path d="M406.393,107.998c-0.967,-18.6 -6.058,-35.958 -15.171,-52.146c-8.2,-14.558 -19.021,-26.816 -32.671,-36.516c-7.55,-5.367 -15.537,-9.596 -23.937,-12.734c5.158,105.929 -64.571,226.013 -181.896,303.229c11.392,9.446 22.792,18.88 34.171,28.346c4.629,3.85 9.162,7.821 13.746,11.729c0.829,0.705 1.704,1.359 2.75,2.196c0.687,-0.537 1.083,-0.829 1.462,-1.146c12.296,-10.333 24.571,-20.695 36.892,-31.004c13.325,-11.141 26.708,-22.212 40.033,-33.35c9.246,-7.729 18.496,-15.45 27.65,-23.283c13.734,-11.746 27.363,-23.617 40.229,-36.325c11.163,-11.025 21.675,-22.617 30.667,-35.513c9.308,-13.345 16.746,-27.641 21.354,-43.304c3.859,-13.112 5.429,-26.496 4.721,-40.179" style="fill:#cf102d;fill-rule:nonzero;"/></svg>