<?xml version="1.0" encoding="UTF-8" standalone="no"?><!DOCTYPE svg PUBLIC "-//W3C//DTD SVG 1.1//EN" "http://www.w3.org/Graphics/SVG/1.1/DTD/svg11.dtd"><svg width="100%" height="100%" viewBox="0 0 524 398" version="1.1" xmlns="http://www.w3.org/2000/svg" xmlns:xlink="http://www.w3.org/1999/xlink" xml:space="preserve" xmlns:serif="http://www.serif.com/" style="fill-rule:evenodd;clip-rule:evenodd;stroke-linejoin:round;stroke-miterlimit:2;"><path d="M318.679,57.533c-86.008,0 -188.716,63.254 -228.941,141c-40.234,77.754 -2.984,141.005 83.029,141.005l175.479,-0l23.754,-45.909l-175.475,0c-58.012,0 -83.121,-42.667 -55.992,-95.096c27.13,-52.437 96.384,-95.091 154.396,-95.091l124.254,-0l-37.316,72.129l-133.1,-0l-23.759,45.916l183.896,0l84.829,-163.954l-175.054,0Z" style="fill:url(#_Linear1);fill-rule:nonzero;"/><path d="M341.063,-0c-118.605,-0 -261.167,89.062 -317.809,198.533c-56.637,109.467 -6.241,198.529 112.354,198.529l182.875,0l23.75,-45.908l-182.862,0c-90.592,0 -128.867,-68.467 -85.321,-152.621c43.546,-84.162 152.667,-152.625 243.258,-152.625l182.867,0l23.754,-45.908l-182.866,-0Z" style="fill:url(#_Linear2);fill-rule:nonzero;"/><defs><linearGradient id="_Linear1" x1="0" y1="0" x2="1" y2="0" gradientUnits="userSpaceOnUse" gradientTransform="matrix(420.212,0,0,-420.212,73.5257,198.535)"><stop offset="0" style="stop-color:#ef3a4d;stop-opacity:1"/><stop offset="0.98" style="stop-color:#f68a4b;stop-opacity:1"/><stop offset="1" style="stop-color:#f68a4b;stop-opacity:1"/></linearGradient><linearGradient id="_Linear2" x1="0" y1="0" x2="1" y2="0" gradientUnits="userSpaceOnUse" gradientTransform="matrix(523.931,0,0,-523.931,-0.00165166,198.531)"><stop offset="0" style="stop-color:#ef3a4d;stop-opacity:1"/><stop offset="0.98" style="stop-color:#f68a4b;stop-opacity:1"/><stop offset="1" style="stop-color:#f68a4b;stop-opacity:1"/></linearGradient></defs></svg>